<?xml version="1.0" encoding="utf-8" standalone="no"?>
<!DOCTYPE svg PUBLIC "-//W3C//DTD SVG 1.1//EN"
  "http://www.w3.org/Graphics/SVG/1.1/DTD/svg11.dtd">
<svg xmlns:xlink="http://www.w3.org/1999/xlink" width="780.57pt" height="453.2748pt" viewBox="0 0 780.57 453.2748" xmlns="http://www.w3.org/2000/svg" version="1.1">
 <metadata>
  <rdf:RDF xmlns:dc="http://purl.org/dc/elements/1.1/" xmlns:cc="http://creativecommons.org/ns#" xmlns:rdf="http://www.w3.org/1999/02/22-rdf-syntax-ns#">
   <cc:Work>
    <dc:type rdf:resource="http://purl.org/dc/dcmitype/StillImage"/>
    <dc:date>2024-04-16T18:15:58.959671</dc:date>
    <dc:format>image/svg+xml</dc:format>
    <dc:creator>
     <cc:Agent>
      <dc:title>Matplotlib v3.8.3, https://matplotlib.org/</dc:title>
     </cc:Agent>
    </dc:creator>
   </cc:Work>
  </rdf:RDF>
 </metadata>
 <defs>
  <style type="text/css">*{stroke-linejoin: round; stroke-linecap: butt}</style>
 </defs>
 <g id="figure_1">
  <g id="patch_1">
   <path d="M -0 453.2748 
L 780.57 453.2748 
L 780.57 0 
L -0 0 
z
" style="fill: #ffffff"/>
  </g>
  <g id="axes_1">
   <g id="patch_2">
    <path d="M 59.13 404.1048 
L 773.37 404.1048 
L 773.37 49.2888 
L 59.13 49.2888 
z
" style="fill: #ffffff"/>
   </g>
   <g id="matplotlib.axis_1">
    <g id="xtick_1">
     <g id="line2d_1">
      <defs>
       <path id="m929964251c" d="M 0 0 
L 0 3.5 
" style="stroke: #000000; stroke-width: 0.8"/>
      </defs>
      <g>
       <use xlink:href="#m929964251c" x="245.379187" y="404.1048" style="stroke: #000000; stroke-width: 0.8"/>
      </g>
     </g>
     <g id="text_1">
      <!-- CG-OMP -->
      <g transform="translate(212.464187 423.2623) scale(0.16 -0.16)">
       <defs>
        <path id="DejaVuSans-43" d="M 4122 4306 
L 4122 3641 
Q 3803 3938 3442 4084 
Q 3081 4231 2675 4231 
Q 1875 4231 1450 3742 
Q 1025 3253 1025 2328 
Q 1025 1406 1450 917 
Q 1875 428 2675 428 
Q 3081 428 3442 575 
Q 3803 722 4122 1019 
L 4122 359 
Q 3791 134 3420 21 
Q 3050 -91 2638 -91 
Q 1578 -91 968 557 
Q 359 1206 359 2328 
Q 359 3453 968 4101 
Q 1578 4750 2638 4750 
Q 3056 4750 3426 4639 
Q 3797 4528 4122 4306 
z
" transform="scale(0.015625)"/>
        <path id="DejaVuSans-47" d="M 3809 666 
L 3809 1919 
L 2778 1919 
L 2778 2438 
L 4434 2438 
L 4434 434 
Q 4069 175 3628 42 
Q 3188 -91 2688 -91 
Q 1594 -91 976 548 
Q 359 1188 359 2328 
Q 359 3472 976 4111 
Q 1594 4750 2688 4750 
Q 3144 4750 3555 4637 
Q 3966 4525 4313 4306 
L 4313 3634 
Q 3963 3931 3569 4081 
Q 3175 4231 2741 4231 
Q 1884 4231 1454 3753 
Q 1025 3275 1025 2328 
Q 1025 1384 1454 906 
Q 1884 428 2741 428 
Q 3075 428 3337 486 
Q 3600 544 3809 666 
z
" transform="scale(0.015625)"/>
        <path id="DejaVuSans-2d" d="M 313 2009 
L 1997 2009 
L 1997 1497 
L 313 1497 
L 313 2009 
z
" transform="scale(0.015625)"/>
        <path id="DejaVuSans-4f" d="M 2522 4238 
Q 1834 4238 1429 3725 
Q 1025 3213 1025 2328 
Q 1025 1447 1429 934 
Q 1834 422 2522 422 
Q 3209 422 3611 934 
Q 4013 1447 4013 2328 
Q 4013 3213 3611 3725 
Q 3209 4238 2522 4238 
z
M 2522 4750 
Q 3503 4750 4090 4092 
Q 4678 3434 4678 2328 
Q 4678 1225 4090 567 
Q 3503 -91 2522 -91 
Q 1538 -91 948 565 
Q 359 1222 359 2328 
Q 359 3434 948 4092 
Q 1538 4750 2522 4750 
z
" transform="scale(0.015625)"/>
        <path id="DejaVuSans-4d" d="M 628 4666 
L 1569 4666 
L 2759 1491 
L 3956 4666 
L 4897 4666 
L 4897 0 
L 4281 0 
L 4281 4097 
L 3078 897 
L 2444 897 
L 1241 4097 
L 1241 0 
L 628 0 
L 628 4666 
z
" transform="scale(0.015625)"/>
        <path id="DejaVuSans-50" d="M 1259 4147 
L 1259 2394 
L 2053 2394 
Q 2494 2394 2734 2622 
Q 2975 2850 2975 3272 
Q 2975 3691 2734 3919 
Q 2494 4147 2053 4147 
L 1259 4147 
z
M 628 4666 
L 2053 4666 
Q 2838 4666 3239 4311 
Q 3641 3956 3641 3272 
Q 3641 2581 3239 2228 
Q 2838 1875 2053 1875 
L 1259 1875 
L 1259 0 
L 628 0 
L 628 4666 
z
" transform="scale(0.015625)"/>
       </defs>
       <use xlink:href="#DejaVuSans-43"/>
       <use xlink:href="#DejaVuSans-47" x="69.824219"/>
       <use xlink:href="#DejaVuSans-2d" x="147.314453"/>
       <use xlink:href="#DejaVuSans-4f" x="186.148438"/>
       <use xlink:href="#DejaVuSans-4d" x="264.859375"/>
       <use xlink:href="#DejaVuSans-50" x="351.138672"/>
      </g>
     </g>
    </g>
    <g id="xtick_2">
     <g id="line2d_2">
      <g>
       <use xlink:href="#m929964251c" x="587.120813" y="404.1048" style="stroke: #000000; stroke-width: 0.8"/>
      </g>
     </g>
     <g id="text_2">
      <!-- FT-OMP -->
      <g transform="translate(557.373313 423.2623) scale(0.16 -0.16)">
       <defs>
        <path id="DejaVuSans-46" d="M 628 4666 
L 3309 4666 
L 3309 4134 
L 1259 4134 
L 1259 2759 
L 3109 2759 
L 3109 2228 
L 1259 2228 
L 1259 0 
L 628 0 
L 628 4666 
z
" transform="scale(0.015625)"/>
        <path id="DejaVuSans-54" d="M -19 4666 
L 3928 4666 
L 3928 4134 
L 2272 4134 
L 2272 0 
L 1638 0 
L 1638 4134 
L -19 4134 
L -19 4666 
z
" transform="scale(0.015625)"/>
       </defs>
       <use xlink:href="#DejaVuSans-46"/>
       <use xlink:href="#DejaVuSans-54" x="55.769531"/>
       <use xlink:href="#DejaVuSans-2d" x="107.728516"/>
       <use xlink:href="#DejaVuSans-4f" x="146.5625"/>
       <use xlink:href="#DejaVuSans-4d" x="225.273438"/>
       <use xlink:href="#DejaVuSans-50" x="311.552734"/>
      </g>
     </g>
    </g>
    <g id="text_3">
     <!-- Applications -->
     <g transform="translate(367.3825 442.7473) scale(0.16 -0.16)">
      <defs>
       <path id="DejaVuSans-41" d="M 2188 4044 
L 1331 1722 
L 3047 1722 
L 2188 4044 
z
M 1831 4666 
L 2547 4666 
L 4325 0 
L 3669 0 
L 3244 1197 
L 1141 1197 
L 716 0 
L 50 0 
L 1831 4666 
z
" transform="scale(0.015625)"/>
       <path id="DejaVuSans-70" d="M 1159 525 
L 1159 -1331 
L 581 -1331 
L 581 3500 
L 1159 3500 
L 1159 2969 
Q 1341 3281 1617 3432 
Q 1894 3584 2278 3584 
Q 2916 3584 3314 3078 
Q 3713 2572 3713 1747 
Q 3713 922 3314 415 
Q 2916 -91 2278 -91 
Q 1894 -91 1617 61 
Q 1341 213 1159 525 
z
M 3116 1747 
Q 3116 2381 2855 2742 
Q 2594 3103 2138 3103 
Q 1681 3103 1420 2742 
Q 1159 2381 1159 1747 
Q 1159 1113 1420 752 
Q 1681 391 2138 391 
Q 2594 391 2855 752 
Q 3116 1113 3116 1747 
z
" transform="scale(0.015625)"/>
       <path id="DejaVuSans-6c" d="M 603 4863 
L 1178 4863 
L 1178 0 
L 603 0 
L 603 4863 
z
" transform="scale(0.015625)"/>
       <path id="DejaVuSans-69" d="M 603 3500 
L 1178 3500 
L 1178 0 
L 603 0 
L 603 3500 
z
M 603 4863 
L 1178 4863 
L 1178 4134 
L 603 4134 
L 603 4863 
z
" transform="scale(0.015625)"/>
       <path id="DejaVuSans-63" d="M 3122 3366 
L 3122 2828 
Q 2878 2963 2633 3030 
Q 2388 3097 2138 3097 
Q 1578 3097 1268 2742 
Q 959 2388 959 1747 
Q 959 1106 1268 751 
Q 1578 397 2138 397 
Q 2388 397 2633 464 
Q 2878 531 3122 666 
L 3122 134 
Q 2881 22 2623 -34 
Q 2366 -91 2075 -91 
Q 1284 -91 818 406 
Q 353 903 353 1747 
Q 353 2603 823 3093 
Q 1294 3584 2113 3584 
Q 2378 3584 2631 3529 
Q 2884 3475 3122 3366 
z
" transform="scale(0.015625)"/>
       <path id="DejaVuSans-61" d="M 2194 1759 
Q 1497 1759 1228 1600 
Q 959 1441 959 1056 
Q 959 750 1161 570 
Q 1363 391 1709 391 
Q 2188 391 2477 730 
Q 2766 1069 2766 1631 
L 2766 1759 
L 2194 1759 
z
M 3341 1997 
L 3341 0 
L 2766 0 
L 2766 531 
Q 2569 213 2275 61 
Q 1981 -91 1556 -91 
Q 1019 -91 701 211 
Q 384 513 384 1019 
Q 384 1609 779 1909 
Q 1175 2209 1959 2209 
L 2766 2209 
L 2766 2266 
Q 2766 2663 2505 2880 
Q 2244 3097 1772 3097 
Q 1472 3097 1187 3025 
Q 903 2953 641 2809 
L 641 3341 
Q 956 3463 1253 3523 
Q 1550 3584 1831 3584 
Q 2591 3584 2966 3190 
Q 3341 2797 3341 1997 
z
" transform="scale(0.015625)"/>
       <path id="DejaVuSans-74" d="M 1172 4494 
L 1172 3500 
L 2356 3500 
L 2356 3053 
L 1172 3053 
L 1172 1153 
Q 1172 725 1289 603 
Q 1406 481 1766 481 
L 2356 481 
L 2356 0 
L 1766 0 
Q 1100 0 847 248 
Q 594 497 594 1153 
L 594 3053 
L 172 3053 
L 172 3500 
L 594 3500 
L 594 4494 
L 1172 4494 
z
" transform="scale(0.015625)"/>
       <path id="DejaVuSans-6f" d="M 1959 3097 
Q 1497 3097 1228 2736 
Q 959 2375 959 1747 
Q 959 1119 1226 758 
Q 1494 397 1959 397 
Q 2419 397 2687 759 
Q 2956 1122 2956 1747 
Q 2956 2369 2687 2733 
Q 2419 3097 1959 3097 
z
M 1959 3584 
Q 2709 3584 3137 3096 
Q 3566 2609 3566 1747 
Q 3566 888 3137 398 
Q 2709 -91 1959 -91 
Q 1206 -91 779 398 
Q 353 888 353 1747 
Q 353 2609 779 3096 
Q 1206 3584 1959 3584 
z
" transform="scale(0.015625)"/>
       <path id="DejaVuSans-6e" d="M 3513 2113 
L 3513 0 
L 2938 0 
L 2938 2094 
Q 2938 2591 2744 2837 
Q 2550 3084 2163 3084 
Q 1697 3084 1428 2787 
Q 1159 2491 1159 1978 
L 1159 0 
L 581 0 
L 581 3500 
L 1159 3500 
L 1159 2956 
Q 1366 3272 1645 3428 
Q 1925 3584 2291 3584 
Q 2894 3584 3203 3211 
Q 3513 2838 3513 2113 
z
" transform="scale(0.015625)"/>
       <path id="DejaVuSans-73" d="M 2834 3397 
L 2834 2853 
Q 2591 2978 2328 3040 
Q 2066 3103 1784 3103 
Q 1356 3103 1142 2972 
Q 928 2841 928 2578 
Q 928 2378 1081 2264 
Q 1234 2150 1697 2047 
L 1894 2003 
Q 2506 1872 2764 1633 
Q 3022 1394 3022 966 
Q 3022 478 2636 193 
Q 2250 -91 1575 -91 
Q 1294 -91 989 -36 
Q 684 19 347 128 
L 347 722 
Q 666 556 975 473 
Q 1284 391 1588 391 
Q 1994 391 2212 530 
Q 2431 669 2431 922 
Q 2431 1156 2273 1281 
Q 2116 1406 1581 1522 
L 1381 1569 
Q 847 1681 609 1914 
Q 372 2147 372 2553 
Q 372 3047 722 3315 
Q 1072 3584 1716 3584 
Q 2034 3584 2315 3537 
Q 2597 3491 2834 3397 
z
" transform="scale(0.015625)"/>
      </defs>
      <use xlink:href="#DejaVuSans-41"/>
      <use xlink:href="#DejaVuSans-70" x="68.408203"/>
      <use xlink:href="#DejaVuSans-70" x="131.884766"/>
      <use xlink:href="#DejaVuSans-6c" x="195.361328"/>
      <use xlink:href="#DejaVuSans-69" x="223.144531"/>
      <use xlink:href="#DejaVuSans-63" x="250.927734"/>
      <use xlink:href="#DejaVuSans-61" x="305.908203"/>
      <use xlink:href="#DejaVuSans-74" x="367.1875"/>
      <use xlink:href="#DejaVuSans-69" x="406.396484"/>
      <use xlink:href="#DejaVuSans-6f" x="434.179688"/>
      <use xlink:href="#DejaVuSans-6e" x="495.361328"/>
      <use xlink:href="#DejaVuSans-73" x="558.740234"/>
     </g>
    </g>
   </g>
   <g id="matplotlib.axis_2">
    <g id="ytick_1">
     <g id="line2d_3">
      <path d="M 59.13 404.1048 
L 773.37 404.1048 
" clip-path="url(#p31ab61cda8)" style="fill: none; stroke: #b0b0b0; stroke-width: 0.8; stroke-linecap: square"/>
     </g>
     <g id="line2d_4">
      <defs>
       <path id="m045d88a338" d="M 0 0 
L -3.5 0 
" style="stroke: #000000; stroke-width: 0.8"/>
      </defs>
      <g>
       <use xlink:href="#m045d88a338" x="59.13" y="404.1048" style="stroke: #000000; stroke-width: 0.8"/>
      </g>
     </g>
     <g id="text_4">
      <!-- 0.4 -->
      <g transform="translate(26.685 410.18355) scale(0.16 -0.16)">
       <defs>
        <path id="DejaVuSans-30" d="M 2034 4250 
Q 1547 4250 1301 3770 
Q 1056 3291 1056 2328 
Q 1056 1369 1301 889 
Q 1547 409 2034 409 
Q 2525 409 2770 889 
Q 3016 1369 3016 2328 
Q 3016 3291 2770 3770 
Q 2525 4250 2034 4250 
z
M 2034 4750 
Q 2819 4750 3233 4129 
Q 3647 3509 3647 2328 
Q 3647 1150 3233 529 
Q 2819 -91 2034 -91 
Q 1250 -91 836 529 
Q 422 1150 422 2328 
Q 422 3509 836 4129 
Q 1250 4750 2034 4750 
z
" transform="scale(0.015625)"/>
        <path id="DejaVuSans-2e" d="M 684 794 
L 1344 794 
L 1344 0 
L 684 0 
L 684 794 
z
" transform="scale(0.015625)"/>
        <path id="DejaVuSans-34" d="M 2419 4116 
L 825 1625 
L 2419 1625 
L 2419 4116 
z
M 2253 4666 
L 3047 4666 
L 3047 1625 
L 3713 1625 
L 3713 1100 
L 3047 1100 
L 3047 0 
L 2419 0 
L 2419 1100 
L 313 1100 
L 313 1709 
L 2253 4666 
z
" transform="scale(0.015625)"/>
       </defs>
       <use xlink:href="#DejaVuSans-30"/>
       <use xlink:href="#DejaVuSans-2e" x="63.623047"/>
       <use xlink:href="#DejaVuSans-34" x="95.410156"/>
      </g>
     </g>
    </g>
    <g id="ytick_2">
     <g id="line2d_5">
      <path d="M 59.13 361.806312 
L 773.37 361.806312 
" clip-path="url(#p31ab61cda8)" style="fill: none; stroke: #b0b0b0; stroke-width: 0.8; stroke-linecap: square"/>
     </g>
     <g id="line2d_6">
      <g>
       <use xlink:href="#m045d88a338" x="59.13" y="361.806312" style="stroke: #000000; stroke-width: 0.8"/>
      </g>
     </g>
     <g id="text_5">
      <!-- 0.6 -->
      <g transform="translate(26.685 367.885062) scale(0.16 -0.16)">
       <defs>
        <path id="DejaVuSans-36" d="M 2113 2584 
Q 1688 2584 1439 2293 
Q 1191 2003 1191 1497 
Q 1191 994 1439 701 
Q 1688 409 2113 409 
Q 2538 409 2786 701 
Q 3034 994 3034 1497 
Q 3034 2003 2786 2293 
Q 2538 2584 2113 2584 
z
M 3366 4563 
L 3366 3988 
Q 3128 4100 2886 4159 
Q 2644 4219 2406 4219 
Q 1781 4219 1451 3797 
Q 1122 3375 1075 2522 
Q 1259 2794 1537 2939 
Q 1816 3084 2150 3084 
Q 2853 3084 3261 2657 
Q 3669 2231 3669 1497 
Q 3669 778 3244 343 
Q 2819 -91 2113 -91 
Q 1303 -91 875 529 
Q 447 1150 447 2328 
Q 447 3434 972 4092 
Q 1497 4750 2381 4750 
Q 2619 4750 2861 4703 
Q 3103 4656 3366 4563 
z
" transform="scale(0.015625)"/>
       </defs>
       <use xlink:href="#DejaVuSans-30"/>
       <use xlink:href="#DejaVuSans-2e" x="63.623047"/>
       <use xlink:href="#DejaVuSans-36" x="95.410156"/>
      </g>
     </g>
    </g>
    <g id="ytick_3">
     <g id="line2d_7">
      <path d="M 59.13 331.795057 
L 773.37 331.795057 
" clip-path="url(#p31ab61cda8)" style="fill: none; stroke: #b0b0b0; stroke-width: 0.8; stroke-linecap: square"/>
     </g>
     <g id="line2d_8">
      <g>
       <use xlink:href="#m045d88a338" x="59.13" y="331.795057" style="stroke: #000000; stroke-width: 0.8"/>
      </g>
     </g>
     <g id="text_6">
      <!-- 0.8 -->
      <g transform="translate(26.685 337.873807) scale(0.16 -0.16)">
       <defs>
        <path id="DejaVuSans-38" d="M 2034 2216 
Q 1584 2216 1326 1975 
Q 1069 1734 1069 1313 
Q 1069 891 1326 650 
Q 1584 409 2034 409 
Q 2484 409 2743 651 
Q 3003 894 3003 1313 
Q 3003 1734 2745 1975 
Q 2488 2216 2034 2216 
z
M 1403 2484 
Q 997 2584 770 2862 
Q 544 3141 544 3541 
Q 544 4100 942 4425 
Q 1341 4750 2034 4750 
Q 2731 4750 3128 4425 
Q 3525 4100 3525 3541 
Q 3525 3141 3298 2862 
Q 3072 2584 2669 2484 
Q 3125 2378 3379 2068 
Q 3634 1759 3634 1313 
Q 3634 634 3220 271 
Q 2806 -91 2034 -91 
Q 1263 -91 848 271 
Q 434 634 434 1313 
Q 434 1759 690 2068 
Q 947 2378 1403 2484 
z
M 1172 3481 
Q 1172 3119 1398 2916 
Q 1625 2713 2034 2713 
Q 2441 2713 2670 2916 
Q 2900 3119 2900 3481 
Q 2900 3844 2670 4047 
Q 2441 4250 2034 4250 
Q 1625 4250 1398 4047 
Q 1172 3844 1172 3481 
z
" transform="scale(0.015625)"/>
       </defs>
       <use xlink:href="#DejaVuSans-30"/>
       <use xlink:href="#DejaVuSans-2e" x="63.623047"/>
       <use xlink:href="#DejaVuSans-38" x="95.410156"/>
      </g>
     </g>
    </g>
    <g id="ytick_4">
     <g id="line2d_9">
      <path d="M 59.13 308.516519 
L 773.37 308.516519 
" clip-path="url(#p31ab61cda8)" style="fill: none; stroke: #b0b0b0; stroke-width: 0.8; stroke-linecap: square"/>
     </g>
     <g id="line2d_10">
      <g>
       <use xlink:href="#m045d88a338" x="59.13" y="308.516519" style="stroke: #000000; stroke-width: 0.8"/>
      </g>
     </g>
     <g id="text_7">
      <!-- 1 -->
      <g transform="translate(41.95 314.595269) scale(0.16 -0.16)">
       <defs>
        <path id="DejaVuSans-31" d="M 794 531 
L 1825 531 
L 1825 4091 
L 703 3866 
L 703 4441 
L 1819 4666 
L 2450 4666 
L 2450 531 
L 3481 531 
L 3481 0 
L 794 0 
L 794 531 
z
" transform="scale(0.015625)"/>
       </defs>
       <use xlink:href="#DejaVuSans-31"/>
      </g>
     </g>
    </g>
    <g id="ytick_5">
     <g id="line2d_11">
      <path d="M 59.13 236.206775 
L 773.37 236.206775 
" clip-path="url(#p31ab61cda8)" style="fill: none; stroke: #b0b0b0; stroke-width: 0.8; stroke-linecap: square"/>
     </g>
     <g id="line2d_12">
      <g>
       <use xlink:href="#m045d88a338" x="59.13" y="236.206775" style="stroke: #000000; stroke-width: 0.8"/>
      </g>
     </g>
     <g id="text_8">
      <!-- 2 -->
      <g transform="translate(41.95 242.285525) scale(0.16 -0.16)">
       <defs>
        <path id="DejaVuSans-32" d="M 1228 531 
L 3431 531 
L 3431 0 
L 469 0 
L 469 531 
Q 828 903 1448 1529 
Q 2069 2156 2228 2338 
Q 2531 2678 2651 2914 
Q 2772 3150 2772 3378 
Q 2772 3750 2511 3984 
Q 2250 4219 1831 4219 
Q 1534 4219 1204 4116 
Q 875 4013 500 3803 
L 500 4441 
Q 881 4594 1212 4672 
Q 1544 4750 1819 4750 
Q 2544 4750 2975 4387 
Q 3406 4025 3406 3419 
Q 3406 3131 3298 2873 
Q 3191 2616 2906 2266 
Q 2828 2175 2409 1742 
Q 1991 1309 1228 531 
z
" transform="scale(0.015625)"/>
       </defs>
       <use xlink:href="#DejaVuSans-32"/>
      </g>
     </g>
    </g>
    <g id="ytick_6">
     <g id="line2d_13">
      <path d="M 59.13 193.908287 
L 773.37 193.908287 
" clip-path="url(#p31ab61cda8)" style="fill: none; stroke: #b0b0b0; stroke-width: 0.8; stroke-linecap: square"/>
     </g>
     <g id="line2d_14">
      <g>
       <use xlink:href="#m045d88a338" x="59.13" y="193.908287" style="stroke: #000000; stroke-width: 0.8"/>
      </g>
     </g>
     <g id="text_9">
      <!-- 3 -->
      <g transform="translate(41.95 199.987037) scale(0.16 -0.16)">
       <defs>
        <path id="DejaVuSans-33" d="M 2597 2516 
Q 3050 2419 3304 2112 
Q 3559 1806 3559 1356 
Q 3559 666 3084 287 
Q 2609 -91 1734 -91 
Q 1441 -91 1130 -33 
Q 819 25 488 141 
L 488 750 
Q 750 597 1062 519 
Q 1375 441 1716 441 
Q 2309 441 2620 675 
Q 2931 909 2931 1356 
Q 2931 1769 2642 2001 
Q 2353 2234 1838 2234 
L 1294 2234 
L 1294 2753 
L 1863 2753 
Q 2328 2753 2575 2939 
Q 2822 3125 2822 3475 
Q 2822 3834 2567 4026 
Q 2313 4219 1838 4219 
Q 1578 4219 1281 4162 
Q 984 4106 628 3988 
L 628 4550 
Q 988 4650 1302 4700 
Q 1616 4750 1894 4750 
Q 2613 4750 3031 4423 
Q 3450 4097 3450 3541 
Q 3450 3153 3228 2886 
Q 3006 2619 2597 2516 
z
" transform="scale(0.015625)"/>
       </defs>
       <use xlink:href="#DejaVuSans-33"/>
      </g>
     </g>
    </g>
    <g id="ytick_7">
     <g id="line2d_15">
      <path d="M 59.13 163.897032 
L 773.37 163.897032 
" clip-path="url(#p31ab61cda8)" style="fill: none; stroke: #b0b0b0; stroke-width: 0.8; stroke-linecap: square"/>
     </g>
     <g id="line2d_16">
      <g>
       <use xlink:href="#m045d88a338" x="59.13" y="163.897032" style="stroke: #000000; stroke-width: 0.8"/>
      </g>
     </g>
     <g id="text_10">
      <!-- 4 -->
      <g transform="translate(41.95 169.975782) scale(0.16 -0.16)">
       <use xlink:href="#DejaVuSans-34"/>
      </g>
     </g>
    </g>
    <g id="ytick_8">
     <g id="line2d_17">
      <path d="M 59.13 91.587288 
L 773.37 91.587288 
" clip-path="url(#p31ab61cda8)" style="fill: none; stroke: #b0b0b0; stroke-width: 0.8; stroke-linecap: square"/>
     </g>
     <g id="line2d_18">
      <g>
       <use xlink:href="#m045d88a338" x="59.13" y="91.587288" style="stroke: #000000; stroke-width: 0.8"/>
      </g>
     </g>
     <g id="text_11">
      <!-- 8 -->
      <g transform="translate(41.95 97.666038) scale(0.16 -0.16)">
       <use xlink:href="#DejaVuSans-38"/>
      </g>
     </g>
    </g>
    <g id="ytick_9">
     <g id="line2d_19">
      <path d="M 59.13 49.2888 
L 773.37 49.2888 
" clip-path="url(#p31ab61cda8)" style="fill: none; stroke: #b0b0b0; stroke-width: 0.8; stroke-linecap: square"/>
     </g>
     <g id="line2d_20">
      <g>
       <use xlink:href="#m045d88a338" x="59.13" y="49.2888" style="stroke: #000000; stroke-width: 0.8"/>
      </g>
     </g>
     <g id="text_12">
      <!-- 12 -->
      <g transform="translate(31.77 55.36755) scale(0.16 -0.16)">
       <use xlink:href="#DejaVuSans-31"/>
       <use xlink:href="#DejaVuSans-32" x="63.623047"/>
      </g>
     </g>
    </g>
    <g id="ytick_10">
     <g id="line2d_21">
      <defs>
       <path id="m3571565299" d="M 0 0 
L -2 0 
" style="stroke: #000000; stroke-width: 0.6"/>
      </defs>
      <g>
       <use xlink:href="#m3571565299" x="59.13" y="380.826262" style="stroke: #000000; stroke-width: 0.6"/>
      </g>
     </g>
    </g>
    <g id="ytick_11">
     <g id="line2d_22">
      <g>
       <use xlink:href="#m3571565299" x="59.13" y="345.725173" style="stroke: #000000; stroke-width: 0.6"/>
      </g>
     </g>
    </g>
    <g id="ytick_12">
     <g id="line2d_23">
      <g>
       <use xlink:href="#m3571565299" x="59.13" y="319.507823" style="stroke: #000000; stroke-width: 0.6"/>
      </g>
     </g>
    </g>
    <g id="ytick_13">
     <g id="line2d_24">
      <g>
       <use xlink:href="#m3571565299" x="59.13" y="140.618494" style="stroke: #000000; stroke-width: 0.6"/>
      </g>
     </g>
    </g>
    <g id="ytick_14">
     <g id="line2d_25">
      <g>
       <use xlink:href="#m3571565299" x="59.13" y="121.598543" style="stroke: #000000; stroke-width: 0.6"/>
      </g>
     </g>
    </g>
    <g id="ytick_15">
     <g id="line2d_26">
      <g>
       <use xlink:href="#m3571565299" x="59.13" y="105.517405" style="stroke: #000000; stroke-width: 0.6"/>
      </g>
     </g>
    </g>
    <g id="ytick_16">
     <g id="line2d_27">
      <g>
       <use xlink:href="#m3571565299" x="59.13" y="79.300055" style="stroke: #000000; stroke-width: 0.6"/>
      </g>
     </g>
    </g>
    <g id="text_13">
     <!-- Speedup -->
     <g transform="translate(19.3575 261.9268) rotate(-90) scale(0.16 -0.16)">
      <defs>
       <path id="DejaVuSans-53" d="M 3425 4513 
L 3425 3897 
Q 3066 4069 2747 4153 
Q 2428 4238 2131 4238 
Q 1616 4238 1336 4038 
Q 1056 3838 1056 3469 
Q 1056 3159 1242 3001 
Q 1428 2844 1947 2747 
L 2328 2669 
Q 3034 2534 3370 2195 
Q 3706 1856 3706 1288 
Q 3706 609 3251 259 
Q 2797 -91 1919 -91 
Q 1588 -91 1214 -16 
Q 841 59 441 206 
L 441 856 
Q 825 641 1194 531 
Q 1563 422 1919 422 
Q 2459 422 2753 634 
Q 3047 847 3047 1241 
Q 3047 1584 2836 1778 
Q 2625 1972 2144 2069 
L 1759 2144 
Q 1053 2284 737 2584 
Q 422 2884 422 3419 
Q 422 4038 858 4394 
Q 1294 4750 2059 4750 
Q 2388 4750 2728 4690 
Q 3069 4631 3425 4513 
z
" transform="scale(0.015625)"/>
       <path id="DejaVuSans-65" d="M 3597 1894 
L 3597 1613 
L 953 1613 
Q 991 1019 1311 708 
Q 1631 397 2203 397 
Q 2534 397 2845 478 
Q 3156 559 3463 722 
L 3463 178 
Q 3153 47 2828 -22 
Q 2503 -91 2169 -91 
Q 1331 -91 842 396 
Q 353 884 353 1716 
Q 353 2575 817 3079 
Q 1281 3584 2069 3584 
Q 2775 3584 3186 3129 
Q 3597 2675 3597 1894 
z
M 3022 2063 
Q 3016 2534 2758 2815 
Q 2500 3097 2075 3097 
Q 1594 3097 1305 2825 
Q 1016 2553 972 2059 
L 3022 2063 
z
" transform="scale(0.015625)"/>
       <path id="DejaVuSans-64" d="M 2906 2969 
L 2906 4863 
L 3481 4863 
L 3481 0 
L 2906 0 
L 2906 525 
Q 2725 213 2448 61 
Q 2172 -91 1784 -91 
Q 1150 -91 751 415 
Q 353 922 353 1747 
Q 353 2572 751 3078 
Q 1150 3584 1784 3584 
Q 2172 3584 2448 3432 
Q 2725 3281 2906 2969 
z
M 947 1747 
Q 947 1113 1208 752 
Q 1469 391 1925 391 
Q 2381 391 2643 752 
Q 2906 1113 2906 1747 
Q 2906 2381 2643 2742 
Q 2381 3103 1925 3103 
Q 1469 3103 1208 2742 
Q 947 2381 947 1747 
z
" transform="scale(0.015625)"/>
       <path id="DejaVuSans-75" d="M 544 1381 
L 544 3500 
L 1119 3500 
L 1119 1403 
Q 1119 906 1312 657 
Q 1506 409 1894 409 
Q 2359 409 2629 706 
Q 2900 1003 2900 1516 
L 2900 3500 
L 3475 3500 
L 3475 0 
L 2900 0 
L 2900 538 
Q 2691 219 2414 64 
Q 2138 -91 1772 -91 
Q 1169 -91 856 284 
Q 544 659 544 1381 
z
M 1991 3584 
L 1991 3584 
z
" transform="scale(0.015625)"/>
      </defs>
      <use xlink:href="#DejaVuSans-53"/>
      <use xlink:href="#DejaVuSans-70" x="63.476562"/>
      <use xlink:href="#DejaVuSans-65" x="126.953125"/>
      <use xlink:href="#DejaVuSans-65" x="188.476562"/>
      <use xlink:href="#DejaVuSans-64" x="250"/>
      <use xlink:href="#DejaVuSans-75" x="313.476562"/>
      <use xlink:href="#DejaVuSans-70" x="376.855469"/>
     </g>
    </g>
   </g>
   <g id="patch_3">
    <path d="M 91.595455 308.516519 
L 125.769617 308.516519 
L 125.769617 260.770193 
L 91.595455 260.770193 
z
" clip-path="url(#p31ab61cda8)" style="fill: #e69f00"/>
   </g>
   <g id="patch_4">
    <path d="M 125.769617 308.516519 
L 159.94378 308.516519 
L 159.94378 242.591078 
L 125.769617 242.591078 
z
" clip-path="url(#p31ab61cda8)" style="fill: #0072b2"/>
   </g>
   <g id="patch_5">
    <path d="M 159.94378 308.516519 
L 194.117943 308.516519 
L 194.117943 237.096757 
L 159.94378 237.096757 
z
" clip-path="url(#p31ab61cda8)" style="fill: #009e73"/>
   </g>
   <g id="patch_6">
    <path d="M 194.117943 308.516519 
L 228.292105 308.516519 
L 228.292105 252.08316 
L 194.117943 252.08316 
z
" clip-path="url(#p31ab61cda8)" style="fill: #e69f00"/>
   </g>
   <g id="patch_7">
    <path d="M 228.292105 308.516519 
L 262.466268 308.516519 
L 262.466268 233.904928 
L 228.292105 233.904928 
z
" clip-path="url(#p31ab61cda8)" style="fill: #0072b2"/>
   </g>
   <g id="patch_8">
    <path d="M 262.466268 308.516519 
L 296.640431 308.516519 
L 296.640431 220.850457 
L 262.466268 220.850457 
z
" clip-path="url(#p31ab61cda8)" style="fill: #009e73"/>
   </g>
   <g id="patch_9">
    <path d="M 296.640431 308.516519 
L 330.814593 308.516519 
L 330.814593 222.691402 
L 296.640431 222.691402 
z
" clip-path="url(#p31ab61cda8)" style="fill: #e69f00"/>
   </g>
   <g id="patch_10">
    <path d="M 330.814593 308.516519 
L 364.988756 308.516519 
L 364.988756 204.516801 
L 330.814593 204.516801 
z
" clip-path="url(#p31ab61cda8)" style="fill: #0072b2"/>
   </g>
   <g id="patch_11">
    <path d="M 364.988756 308.516519 
L 399.162919 308.516519 
L 399.162919 199.134232 
L 364.988756 199.134232 
z
" clip-path="url(#p31ab61cda8)" style="fill: #009e73"/>
   </g>
   <g id="patch_12">
    <path d="M 433.337081 308.516519 
L 467.511244 308.516519 
L 467.511244 397.330541 
L 433.337081 397.330541 
z
" clip-path="url(#p31ab61cda8)" style="fill: #e69f00"/>
   </g>
   <g id="patch_13">
    <path d="M 467.511244 308.516519 
L 501.685407 308.516519 
L 501.685407 379.21248 
L 467.511244 379.21248 
z
" clip-path="url(#p31ab61cda8)" style="fill: #0072b2"/>
   </g>
   <g id="patch_14">
    <path d="M 501.685407 308.516519 
L 535.859569 308.516519 
L 535.859569 368.232003 
L 501.685407 368.232003 
z
" clip-path="url(#p31ab61cda8)" style="fill: #009e73"/>
   </g>
   <g id="patch_15">
    <path d="M 535.859569 308.516519 
L 570.033732 308.516519 
L 570.033732 329.851227 
L 535.859569 329.851227 
z
" clip-path="url(#p31ab61cda8)" style="fill: #e69f00"/>
   </g>
   <g id="patch_16">
    <path d="M 570.033732 308.516519 
L 604.207895 308.516519 
L 604.207895 296.623217 
L 570.033732 296.623217 
z
" clip-path="url(#p31ab61cda8)" style="fill: #0072b2"/>
   </g>
   <g id="patch_17">
    <path d="M 604.207895 308.516519 
L 638.382057 308.516519 
L 638.382057 279.00233 
L 604.207895 279.00233 
z
" clip-path="url(#p31ab61cda8)" style="fill: #009e73"/>
   </g>
   <g id="patch_18">
    <path d="M 638.382057 308.516519 
L 672.55622 308.516519 
L 672.55622 289.284476 
L 638.382057 289.284476 
z
" clip-path="url(#p31ab61cda8)" style="fill: #e69f00"/>
   </g>
   <g id="patch_19">
    <path d="M 672.55622 308.516519 
L 706.730383 308.516519 
L 706.730383 256.056465 
L 672.55622 256.056465 
z
" clip-path="url(#p31ab61cda8)" style="fill: #0072b2"/>
   </g>
   <g id="patch_20">
    <path d="M 706.730383 308.516519 
L 740.904545 308.516519 
L 740.904545 223.298999 
L 706.730383 223.298999 
z
" clip-path="url(#p31ab61cda8)" style="fill: #009e73"/>
   </g>
   <g id="patch_21">
    <path d="M 218.039856 240516.284748 
L 272.718517 240516.284748 
L 272.718517 240516.284748 
L 218.039856 240516.284748 
z
" clip-path="url(#p31ab61cda8)" style="fill: #e69f00"/>
   </g>
   <g id="patch_22">
    <path d="M 218.039856 240516.284748 
L 272.718517 240516.284748 
L 272.718517 240516.284748 
L 218.039856 240516.284748 
z
" clip-path="url(#p31ab61cda8)" style="fill: #0072b2"/>
   </g>
   <g id="patch_23">
    <path d="M 218.039856 240516.284748 
L 272.718517 240516.284748 
L 272.718517 240516.284748 
L 218.039856 240516.284748 
z
" clip-path="url(#p31ab61cda8)" style="fill: #0072b2"/>
   </g>
   <g id="LineCollection_1">
    <path d="M 108.682536 331.753882 
L 108.682536 208.146994 
" clip-path="url(#p31ab61cda8)" style="fill: none; stroke: #000000; stroke-width: 1.5"/>
   </g>
   <g id="LineCollection_2">
    <path d="M 95.012871 331.753882 
L 122.352201 331.753882 
" clip-path="url(#p31ab61cda8)" style="fill: none; stroke: #000000; stroke-width: 1.5"/>
   </g>
   <g id="LineCollection_3">
    <path d="M 95.012871 208.146994 
L 122.352201 208.146994 
" clip-path="url(#p31ab61cda8)" style="fill: none; stroke: #000000; stroke-width: 1.5"/>
   </g>
   <g id="LineCollection_4">
    <path d="M 142.856699 257.349254 
L 142.856699 207.54813 
" clip-path="url(#p31ab61cda8)" style="fill: none; stroke: #000000; stroke-width: 1.5"/>
   </g>
   <g id="LineCollection_5">
    <path d="M 129.187033 257.349254 
L 156.526364 257.349254 
" clip-path="url(#p31ab61cda8)" style="fill: none; stroke: #000000; stroke-width: 1.5"/>
   </g>
   <g id="LineCollection_6">
    <path d="M 129.187033 207.54813 
L 156.526364 207.54813 
" clip-path="url(#p31ab61cda8)" style="fill: none; stroke: #000000; stroke-width: 1.5"/>
   </g>
   <g id="LineCollection_7">
    <path d="M 211.205024 316.224217 
L 211.205024 208.146994 
" clip-path="url(#p31ab61cda8)" style="fill: none; stroke: #000000; stroke-width: 1.5"/>
   </g>
   <g id="LineCollection_8">
    <path d="M 197.535359 316.224217 
L 224.874689 316.224217 
" clip-path="url(#p31ab61cda8)" style="fill: none; stroke: #000000; stroke-width: 1.5"/>
   </g>
   <g id="LineCollection_9">
    <path d="M 197.535359 208.146994 
L 224.874689 208.146994 
" clip-path="url(#p31ab61cda8)" style="fill: none; stroke: #000000; stroke-width: 1.5"/>
   </g>
   <g id="LineCollection_10">
    <path d="M 245.379187 241.819588 
L 245.379187 207.54813 
" clip-path="url(#p31ab61cda8)" style="fill: none; stroke: #000000; stroke-width: 1.5"/>
   </g>
   <g id="LineCollection_11">
    <path d="M 231.709522 241.819588 
L 259.048852 241.819588 
" clip-path="url(#p31ab61cda8)" style="fill: none; stroke: #000000; stroke-width: 1.5"/>
   </g>
   <g id="LineCollection_12">
    <path d="M 231.709522 207.54813 
L 259.048852 207.54813 
" clip-path="url(#p31ab61cda8)" style="fill: none; stroke: #000000; stroke-width: 1.5"/>
   </g>
   <g id="LineCollection_13">
    <path d="M 313.727512 253.180969 
L 313.727512 208.146994 
" clip-path="url(#p31ab61cda8)" style="fill: none; stroke: #000000; stroke-width: 1.5"/>
   </g>
   <g id="LineCollection_14">
    <path d="M 300.057847 253.180969 
L 327.397177 253.180969 
" clip-path="url(#p31ab61cda8)" style="fill: none; stroke: #000000; stroke-width: 1.5"/>
   </g>
   <g id="LineCollection_15">
    <path d="M 300.057847 208.146994 
L 327.397177 208.146994 
" clip-path="url(#p31ab61cda8)" style="fill: none; stroke: #000000; stroke-width: 1.5"/>
   </g>
   <g id="LineCollection_16">
    <path d="M 347.901675 207.54813 
L 347.901675 178.776341 
" clip-path="url(#p31ab61cda8)" style="fill: none; stroke: #000000; stroke-width: 1.5"/>
   </g>
   <g id="LineCollection_17">
    <path d="M 334.23201 207.54813 
L 361.57134 207.54813 
" clip-path="url(#p31ab61cda8)" style="fill: none; stroke: #000000; stroke-width: 1.5"/>
   </g>
   <g id="LineCollection_18">
    <path d="M 334.23201 178.776341 
L 361.57134 178.776341 
" clip-path="url(#p31ab61cda8)" style="fill: none; stroke: #000000; stroke-width: 1.5"/>
   </g>
   <g id="LineCollection_19">
    <path d="M 450.424163 401.115566 
L 450.424163 373.191202 
" clip-path="url(#p31ab61cda8)" style="fill: none; stroke: #000000; stroke-width: 1.5"/>
   </g>
   <g id="LineCollection_20">
    <path d="M 436.754498 401.115566 
L 464.093828 401.115566 
" clip-path="url(#p31ab61cda8)" style="fill: none; stroke: #000000; stroke-width: 1.5"/>
   </g>
   <g id="LineCollection_21">
    <path d="M 436.754498 373.191202 
L 464.093828 373.191202 
" clip-path="url(#p31ab61cda8)" style="fill: none; stroke: #000000; stroke-width: 1.5"/>
   </g>
   <g id="LineCollection_22">
    <path d="M 484.598325 401.250957 
L 484.598325 339.963191 
" clip-path="url(#p31ab61cda8)" style="fill: none; stroke: #000000; stroke-width: 1.5"/>
   </g>
   <g id="LineCollection_23">
    <path d="M 470.92866 401.250957 
L 498.26799 401.250957 
" clip-path="url(#p31ab61cda8)" style="fill: none; stroke: #000000; stroke-width: 1.5"/>
   </g>
   <g id="LineCollection_24">
    <path d="M 470.92866 339.963191 
L 498.26799 339.963191 
" clip-path="url(#p31ab61cda8)" style="fill: none; stroke: #000000; stroke-width: 1.5"/>
   </g>
   <g id="LineCollection_25">
    <path d="M 552.946651 347.393911 
L 552.946651 257.543103 
" clip-path="url(#p31ab61cda8)" style="fill: none; stroke: #000000; stroke-width: 1.5"/>
   </g>
   <g id="LineCollection_26">
    <path d="M 539.276986 347.393911 
L 566.616316 347.393911 
" clip-path="url(#p31ab61cda8)" style="fill: none; stroke: #000000; stroke-width: 1.5"/>
   </g>
   <g id="LineCollection_27">
    <path d="M 539.276986 257.543103 
L 566.616316 257.543103 
" clip-path="url(#p31ab61cda8)" style="fill: none; stroke: #000000; stroke-width: 1.5"/>
   </g>
   <g id="LineCollection_28">
    <path d="M 587.120813 329.27585 
L 587.120813 257.678494 
" clip-path="url(#p31ab61cda8)" style="fill: none; stroke: #000000; stroke-width: 1.5"/>
   </g>
   <g id="LineCollection_29">
    <path d="M 573.451148 329.27585 
L 600.790478 329.27585 
" clip-path="url(#p31ab61cda8)" style="fill: none; stroke: #000000; stroke-width: 1.5"/>
   </g>
   <g id="LineCollection_30">
    <path d="M 573.451148 257.678494 
L 600.790478 257.678494 
" clip-path="url(#p31ab61cda8)" style="fill: none; stroke: #000000; stroke-width: 1.5"/>
   </g>
   <g id="LineCollection_31">
    <path d="M 655.469139 296.848667 
L 655.469139 229.365698 
" clip-path="url(#p31ab61cda8)" style="fill: none; stroke: #000000; stroke-width: 1.5"/>
   </g>
   <g id="LineCollection_32">
    <path d="M 641.799474 296.848667 
L 669.138804 296.848667 
" clip-path="url(#p31ab61cda8)" style="fill: none; stroke: #000000; stroke-width: 1.5"/>
   </g>
   <g id="LineCollection_33">
    <path d="M 641.799474 229.365698 
L 669.138804 229.365698 
" clip-path="url(#p31ab61cda8)" style="fill: none; stroke: #000000; stroke-width: 1.5"/>
   </g>
   <g id="LineCollection_34">
    <path d="M 689.643301 278.730606 
L 689.643301 229.501089 
" clip-path="url(#p31ab61cda8)" style="fill: none; stroke: #000000; stroke-width: 1.5"/>
   </g>
   <g id="LineCollection_35">
    <path d="M 675.973636 278.730606 
L 703.312967 278.730606 
" clip-path="url(#p31ab61cda8)" style="fill: none; stroke: #000000; stroke-width: 1.5"/>
   </g>
   <g id="LineCollection_36">
    <path d="M 675.973636 229.501089 
L 703.312967 229.501089 
" clip-path="url(#p31ab61cda8)" style="fill: none; stroke: #000000; stroke-width: 1.5"/>
   </g>
   <g id="LineCollection_37">
    <path clip-path="url(#p31ab61cda8)" style="fill: none; stroke: #000000; stroke-width: 1.5"/>
   </g>
   <g id="LineCollection_38">
    <path d="M 416.25 404.1048 
L 416.25 49.2888 
" clip-path="url(#p31ab61cda8)" style="fill: none; stroke-dasharray: 5.55,2.4; stroke-dashoffset: 0; stroke: #000000; stroke-width: 1.5"/>
   </g>
   <g id="patch_24">
    <path d="M 59.13 404.1048 
L 59.13 49.2888 
" style="fill: none; stroke: #000000; stroke-width: 0.8; stroke-linejoin: miter; stroke-linecap: square"/>
   </g>
   <g id="patch_25">
    <path d="M 773.37 404.1048 
L 773.37 49.2888 
" style="fill: none; stroke: #000000; stroke-width: 0.8; stroke-linejoin: miter; stroke-linecap: square"/>
   </g>
   <g id="patch_26">
    <path d="M 59.13 404.1048 
L 773.37 404.1048 
" style="fill: none; stroke: #000000; stroke-width: 0.8; stroke-linejoin: miter; stroke-linecap: square"/>
   </g>
   <g id="patch_27">
    <path d="M 59.13 49.2888 
L 773.37 49.2888 
" style="fill: none; stroke: #000000; stroke-width: 0.8; stroke-linejoin: miter; stroke-linecap: square"/>
   </g>
   <g id="text_14">
    <!-- [0.80,2.62]x -->
    <g transform="translate(102.611308 202.544784) rotate(-90) scale(0.1 -0.1)">
     <defs>
      <path id="DejaVuSans-5b" d="M 550 4863 
L 1875 4863 
L 1875 4416 
L 1125 4416 
L 1125 -397 
L 1875 -397 
L 1875 -844 
L 550 -844 
L 550 4863 
z
" transform="scale(0.015625)"/>
      <path id="DejaVuSans-2c" d="M 750 794 
L 1409 794 
L 1409 256 
L 897 -744 
L 494 -744 
L 750 256 
L 750 794 
z
" transform="scale(0.015625)"/>
      <path id="DejaVuSans-5d" d="M 1947 4863 
L 1947 -844 
L 622 -844 
L 622 -397 
L 1369 -397 
L 1369 4416 
L 622 4416 
L 622 4863 
L 1947 4863 
z
" transform="scale(0.015625)"/>
      <path id="DejaVuSans-78" d="M 3513 3500 
L 2247 1797 
L 3578 0 
L 2900 0 
L 1881 1375 
L 863 0 
L 184 0 
L 1544 1831 
L 300 3500 
L 978 3500 
L 1906 2253 
L 2834 3500 
L 3513 3500 
z
" transform="scale(0.015625)"/>
     </defs>
     <use xlink:href="#DejaVuSans-5b"/>
     <use xlink:href="#DejaVuSans-30" x="39.013672"/>
     <use xlink:href="#DejaVuSans-2e" x="102.636719"/>
     <use xlink:href="#DejaVuSans-38" x="134.423828"/>
     <use xlink:href="#DejaVuSans-30" x="198.046875"/>
     <use xlink:href="#DejaVuSans-2c" x="261.669922"/>
     <use xlink:href="#DejaVuSans-32" x="293.457031"/>
     <use xlink:href="#DejaVuSans-2e" x="357.080078"/>
     <use xlink:href="#DejaVuSans-36" x="388.867188"/>
     <use xlink:href="#DejaVuSans-32" x="452.490234"/>
     <use xlink:href="#DejaVuSans-5d" x="516.113281"/>
     <use xlink:href="#DejaVuSans-78" x="555.126953"/>
    </g>
   </g>
   <g id="text_15">
    <!-- [1.63,2.63]x -->
    <g transform="translate(136.785471 201.988321) rotate(-90) scale(0.1 -0.1)">
     <use xlink:href="#DejaVuSans-5b"/>
     <use xlink:href="#DejaVuSans-31" x="39.013672"/>
     <use xlink:href="#DejaVuSans-2e" x="102.636719"/>
     <use xlink:href="#DejaVuSans-36" x="134.423828"/>
     <use xlink:href="#DejaVuSans-33" x="198.046875"/>
     <use xlink:href="#DejaVuSans-2c" x="261.669922"/>
     <use xlink:href="#DejaVuSans-32" x="293.457031"/>
     <use xlink:href="#DejaVuSans-2e" x="357.080078"/>
     <use xlink:href="#DejaVuSans-36" x="388.867188"/>
     <use xlink:href="#DejaVuSans-33" x="452.490234"/>
     <use xlink:href="#DejaVuSans-5d" x="516.113281"/>
     <use xlink:href="#DejaVuSans-78" x="555.126953"/>
    </g>
   </g>
   <g id="text_16">
    <!-- 1.98x -->
    <g transform="translate(170.959634 229.152378) rotate(-90) scale(0.1 -0.1)">
     <defs>
      <path id="DejaVuSans-39" d="M 703 97 
L 703 672 
Q 941 559 1184 500 
Q 1428 441 1663 441 
Q 2288 441 2617 861 
Q 2947 1281 2994 2138 
Q 2813 1869 2534 1725 
Q 2256 1581 1919 1581 
Q 1219 1581 811 2004 
Q 403 2428 403 3163 
Q 403 3881 828 4315 
Q 1253 4750 1959 4750 
Q 2769 4750 3195 4129 
Q 3622 3509 3622 2328 
Q 3622 1225 3098 567 
Q 2575 -91 1691 -91 
Q 1453 -91 1209 -44 
Q 966 3 703 97 
z
M 1959 2075 
Q 2384 2075 2632 2365 
Q 2881 2656 2881 3163 
Q 2881 3666 2632 3958 
Q 2384 4250 1959 4250 
Q 1534 4250 1286 3958 
Q 1038 3666 1038 3163 
Q 1038 2656 1286 2365 
Q 1534 2075 1959 2075 
z
" transform="scale(0.015625)"/>
     </defs>
     <use xlink:href="#DejaVuSans-31"/>
     <use xlink:href="#DejaVuSans-2e" x="63.623047"/>
     <use xlink:href="#DejaVuSans-39" x="95.410156"/>
     <use xlink:href="#DejaVuSans-38" x="159.033203"/>
     <use xlink:href="#DejaVuSans-78" x="222.65625"/>
    </g>
   </g>
   <g id="text_17">
    <!-- [0.93,2.62]x -->
    <g transform="translate(205.133796 202.544784) rotate(-90) scale(0.1 -0.1)">
     <use xlink:href="#DejaVuSans-5b"/>
     <use xlink:href="#DejaVuSans-30" x="39.013672"/>
     <use xlink:href="#DejaVuSans-2e" x="102.636719"/>
     <use xlink:href="#DejaVuSans-39" x="134.423828"/>
     <use xlink:href="#DejaVuSans-33" x="198.046875"/>
     <use xlink:href="#DejaVuSans-2c" x="261.669922"/>
     <use xlink:href="#DejaVuSans-32" x="293.457031"/>
     <use xlink:href="#DejaVuSans-2e" x="357.080078"/>
     <use xlink:href="#DejaVuSans-36" x="388.867188"/>
     <use xlink:href="#DejaVuSans-32" x="452.490234"/>
     <use xlink:href="#DejaVuSans-5d" x="516.113281"/>
     <use xlink:href="#DejaVuSans-78" x="555.126953"/>
    </g>
   </g>
   <g id="text_18">
    <!-- [1.90,2.63]x -->
    <g transform="translate(239.307959 201.988321) rotate(-90) scale(0.1 -0.1)">
     <use xlink:href="#DejaVuSans-5b"/>
     <use xlink:href="#DejaVuSans-31" x="39.013672"/>
     <use xlink:href="#DejaVuSans-2e" x="102.636719"/>
     <use xlink:href="#DejaVuSans-39" x="134.423828"/>
     <use xlink:href="#DejaVuSans-30" x="198.046875"/>
     <use xlink:href="#DejaVuSans-2c" x="261.669922"/>
     <use xlink:href="#DejaVuSans-32" x="293.457031"/>
     <use xlink:href="#DejaVuSans-2e" x="357.080078"/>
     <use xlink:href="#DejaVuSans-36" x="388.867188"/>
     <use xlink:href="#DejaVuSans-33" x="452.490234"/>
     <use xlink:href="#DejaVuSans-5d" x="516.113281"/>
     <use xlink:href="#DejaVuSans-78" x="555.126953"/>
    </g>
   </g>
   <g id="text_19">
    <!-- 2.32x -->
    <g transform="translate(273.482122 214.293585) rotate(-90) scale(0.1 -0.1)">
     <use xlink:href="#DejaVuSans-32"/>
     <use xlink:href="#DejaVuSans-2e" x="63.623047"/>
     <use xlink:href="#DejaVuSans-33" x="95.410156"/>
     <use xlink:href="#DejaVuSans-32" x="159.033203"/>
     <use xlink:href="#DejaVuSans-78" x="222.65625"/>
    </g>
   </g>
   <g id="text_20">
    <!-- [1.70,2.62]x -->
    <g transform="translate(307.656284 202.544784) rotate(-90) scale(0.1 -0.1)">
     <defs>
      <path id="DejaVuSans-37" d="M 525 4666 
L 3525 4666 
L 3525 4397 
L 1831 0 
L 1172 0 
L 2766 4134 
L 525 4134 
L 525 4666 
z
" transform="scale(0.015625)"/>
     </defs>
     <use xlink:href="#DejaVuSans-5b"/>
     <use xlink:href="#DejaVuSans-31" x="39.013672"/>
     <use xlink:href="#DejaVuSans-2e" x="102.636719"/>
     <use xlink:href="#DejaVuSans-37" x="134.423828"/>
     <use xlink:href="#DejaVuSans-30" x="198.046875"/>
     <use xlink:href="#DejaVuSans-2c" x="261.669922"/>
     <use xlink:href="#DejaVuSans-32" x="293.457031"/>
     <use xlink:href="#DejaVuSans-2e" x="357.080078"/>
     <use xlink:href="#DejaVuSans-36" x="388.867188"/>
     <use xlink:href="#DejaVuSans-32" x="452.490234"/>
     <use xlink:href="#DejaVuSans-5d" x="516.113281"/>
     <use xlink:href="#DejaVuSans-78" x="555.126953"/>
    </g>
   </g>
   <g id="text_21">
    <!-- [2.63,3.47]x -->
    <g transform="translate(341.830447 175.007402) rotate(-90) scale(0.1 -0.1)">
     <use xlink:href="#DejaVuSans-5b"/>
     <use xlink:href="#DejaVuSans-32" x="39.013672"/>
     <use xlink:href="#DejaVuSans-2e" x="102.636719"/>
     <use xlink:href="#DejaVuSans-36" x="134.423828"/>
     <use xlink:href="#DejaVuSans-33" x="198.046875"/>
     <use xlink:href="#DejaVuSans-2c" x="261.669922"/>
     <use xlink:href="#DejaVuSans-33" x="293.457031"/>
     <use xlink:href="#DejaVuSans-2e" x="357.080078"/>
     <use xlink:href="#DejaVuSans-34" x="388.867188"/>
     <use xlink:href="#DejaVuSans-37" x="452.490234"/>
     <use xlink:href="#DejaVuSans-5d" x="516.113281"/>
     <use xlink:href="#DejaVuSans-78" x="555.126953"/>
    </g>
   </g>
   <g id="text_22">
    <!-- 2.85x -->
    <g transform="translate(376.00461 194.146798) rotate(-90) scale(0.1 -0.1)">
     <defs>
      <path id="DejaVuSans-35" d="M 691 4666 
L 3169 4666 
L 3169 4134 
L 1269 4134 
L 1269 2991 
Q 1406 3038 1543 3061 
Q 1681 3084 1819 3084 
Q 2600 3084 3056 2656 
Q 3513 2228 3513 1497 
Q 3513 744 3044 326 
Q 2575 -91 1722 -91 
Q 1428 -91 1123 -41 
Q 819 9 494 109 
L 494 744 
Q 775 591 1075 516 
Q 1375 441 1709 441 
Q 2250 441 2565 725 
Q 2881 1009 2881 1497 
Q 2881 1984 2565 2268 
Q 2250 2553 1709 2553 
Q 1456 2553 1204 2497 
Q 953 2441 691 2322 
L 691 4666 
z
" transform="scale(0.015625)"/>
     </defs>
     <use xlink:href="#DejaVuSans-32"/>
     <use xlink:href="#DejaVuSans-2e" x="63.623047"/>
     <use xlink:href="#DejaVuSans-38" x="95.410156"/>
     <use xlink:href="#DejaVuSans-35" x="159.033203"/>
     <use xlink:href="#DejaVuSans-78" x="222.65625"/>
    </g>
   </g>
   <g id="text_23">
    <!-- [0.41,0.54]x -->
    <g transform="translate(444.352935 291.576256) rotate(-90) scale(0.1 -0.1)">
     <use xlink:href="#DejaVuSans-5b"/>
     <use xlink:href="#DejaVuSans-30" x="39.013672"/>
     <use xlink:href="#DejaVuSans-2e" x="102.636719"/>
     <use xlink:href="#DejaVuSans-34" x="134.423828"/>
     <use xlink:href="#DejaVuSans-31" x="198.046875"/>
     <use xlink:href="#DejaVuSans-2c" x="261.669922"/>
     <use xlink:href="#DejaVuSans-30" x="293.457031"/>
     <use xlink:href="#DejaVuSans-2e" x="357.080078"/>
     <use xlink:href="#DejaVuSans-35" x="388.867188"/>
     <use xlink:href="#DejaVuSans-34" x="452.490234"/>
     <use xlink:href="#DejaVuSans-5d" x="516.113281"/>
     <use xlink:href="#DejaVuSans-78" x="555.126953"/>
    </g>
   </g>
   <g id="text_24">
    <!-- [0.41,0.74]x -->
    <g transform="translate(478.527098 291.576256) rotate(-90) scale(0.1 -0.1)">
     <use xlink:href="#DejaVuSans-5b"/>
     <use xlink:href="#DejaVuSans-30" x="39.013672"/>
     <use xlink:href="#DejaVuSans-2e" x="102.636719"/>
     <use xlink:href="#DejaVuSans-34" x="134.423828"/>
     <use xlink:href="#DejaVuSans-31" x="198.046875"/>
     <use xlink:href="#DejaVuSans-2c" x="261.669922"/>
     <use xlink:href="#DejaVuSans-30" x="293.457031"/>
     <use xlink:href="#DejaVuSans-2e" x="357.080078"/>
     <use xlink:href="#DejaVuSans-37" x="388.867188"/>
     <use xlink:href="#DejaVuSans-34" x="452.490234"/>
     <use xlink:href="#DejaVuSans-5d" x="516.113281"/>
     <use xlink:href="#DejaVuSans-78" x="555.126953"/>
    </g>
   </g>
   <g id="text_25">
    <!-- 0.56x -->
    <g transform="translate(512.70126 291.576256) rotate(-90) scale(0.1 -0.1)">
     <use xlink:href="#DejaVuSans-30"/>
     <use xlink:href="#DejaVuSans-2e" x="63.623047"/>
     <use xlink:href="#DejaVuSans-35" x="95.410156"/>
     <use xlink:href="#DejaVuSans-36" x="159.033203"/>
     <use xlink:href="#DejaVuSans-78" x="222.65625"/>
    </g>
   </g>
   <g id="text_26">
    <!-- [0.69,1.63]x -->
    <g transform="translate(546.875423 247.549581) rotate(-90) scale(0.1 -0.1)">
     <use xlink:href="#DejaVuSans-5b"/>
     <use xlink:href="#DejaVuSans-30" x="39.013672"/>
     <use xlink:href="#DejaVuSans-2e" x="102.636719"/>
     <use xlink:href="#DejaVuSans-36" x="134.423828"/>
     <use xlink:href="#DejaVuSans-39" x="198.046875"/>
     <use xlink:href="#DejaVuSans-2c" x="261.669922"/>
     <use xlink:href="#DejaVuSans-31" x="293.457031"/>
     <use xlink:href="#DejaVuSans-2e" x="357.080078"/>
     <use xlink:href="#DejaVuSans-36" x="388.867188"/>
     <use xlink:href="#DejaVuSans-33" x="452.490234"/>
     <use xlink:href="#DejaVuSans-5d" x="516.113281"/>
     <use xlink:href="#DejaVuSans-78" x="555.126953"/>
    </g>
   </g>
   <g id="text_27">
    <!-- [0.82,1.63]x -->
    <g transform="translate(581.049586 247.670167) rotate(-90) scale(0.1 -0.1)">
     <use xlink:href="#DejaVuSans-5b"/>
     <use xlink:href="#DejaVuSans-30" x="39.013672"/>
     <use xlink:href="#DejaVuSans-2e" x="102.636719"/>
     <use xlink:href="#DejaVuSans-38" x="134.423828"/>
     <use xlink:href="#DejaVuSans-32" x="198.046875"/>
     <use xlink:href="#DejaVuSans-2c" x="261.669922"/>
     <use xlink:href="#DejaVuSans-31" x="293.457031"/>
     <use xlink:href="#DejaVuSans-2e" x="357.080078"/>
     <use xlink:href="#DejaVuSans-36" x="388.867188"/>
     <use xlink:href="#DejaVuSans-33" x="452.490234"/>
     <use xlink:href="#DejaVuSans-5d" x="516.113281"/>
     <use xlink:href="#DejaVuSans-78" x="555.126953"/>
    </g>
   </g>
   <g id="text_28">
    <!-- 1.33x -->
    <g transform="translate(615.223749 266.436956) rotate(-90) scale(0.1 -0.1)">
     <use xlink:href="#DejaVuSans-31"/>
     <use xlink:href="#DejaVuSans-2e" x="63.623047"/>
     <use xlink:href="#DejaVuSans-33" x="95.410156"/>
     <use xlink:href="#DejaVuSans-33" x="159.033203"/>
     <use xlink:href="#DejaVuSans-78" x="222.65625"/>
    </g>
   </g>
   <g id="text_29">
    <!-- [1.12,2.14]x -->
    <g transform="translate(649.397911 222.106247) rotate(-90) scale(0.1 -0.1)">
     <use xlink:href="#DejaVuSans-5b"/>
     <use xlink:href="#DejaVuSans-31" x="39.013672"/>
     <use xlink:href="#DejaVuSans-2e" x="102.636719"/>
     <use xlink:href="#DejaVuSans-31" x="134.423828"/>
     <use xlink:href="#DejaVuSans-32" x="198.046875"/>
     <use xlink:href="#DejaVuSans-2c" x="261.669922"/>
     <use xlink:href="#DejaVuSans-32" x="293.457031"/>
     <use xlink:href="#DejaVuSans-2e" x="357.080078"/>
     <use xlink:href="#DejaVuSans-31" x="388.867188"/>
     <use xlink:href="#DejaVuSans-34" x="452.490234"/>
     <use xlink:href="#DejaVuSans-5d" x="516.113281"/>
     <use xlink:href="#DejaVuSans-78" x="555.126953"/>
    </g>
   </g>
   <g id="text_30">
    <!-- [1.33,2.13]x -->
    <g transform="translate(683.572074 222.230037) rotate(-90) scale(0.1 -0.1)">
     <use xlink:href="#DejaVuSans-5b"/>
     <use xlink:href="#DejaVuSans-31" x="39.013672"/>
     <use xlink:href="#DejaVuSans-2e" x="102.636719"/>
     <use xlink:href="#DejaVuSans-33" x="134.423828"/>
     <use xlink:href="#DejaVuSans-33" x="198.046875"/>
     <use xlink:href="#DejaVuSans-2c" x="261.669922"/>
     <use xlink:href="#DejaVuSans-32" x="293.457031"/>
     <use xlink:href="#DejaVuSans-2e" x="357.080078"/>
     <use xlink:href="#DejaVuSans-31" x="388.867188"/>
     <use xlink:href="#DejaVuSans-33" x="452.490234"/>
     <use xlink:href="#DejaVuSans-5d" x="516.113281"/>
     <use xlink:href="#DejaVuSans-78" x="555.126953"/>
    </g>
   </g>
   <g id="text_31">
    <!-- 2.26x -->
    <g transform="translate(717.746237 216.545465) rotate(-90) scale(0.1 -0.1)">
     <use xlink:href="#DejaVuSans-32"/>
     <use xlink:href="#DejaVuSans-2e" x="63.623047"/>
     <use xlink:href="#DejaVuSans-32" x="95.410156"/>
     <use xlink:href="#DejaVuSans-36" x="159.033203"/>
     <use xlink:href="#DejaVuSans-78" x="222.65625"/>
    </g>
   </g>
   <g id="text_32">
    <!-- Comparison of projection with and with scaling  -->
    <g transform="translate(187.7535 21.789) scale(0.192 -0.192)">
     <defs>
      <path id="DejaVuSans-6d" d="M 3328 2828 
Q 3544 3216 3844 3400 
Q 4144 3584 4550 3584 
Q 5097 3584 5394 3201 
Q 5691 2819 5691 2113 
L 5691 0 
L 5113 0 
L 5113 2094 
Q 5113 2597 4934 2840 
Q 4756 3084 4391 3084 
Q 3944 3084 3684 2787 
Q 3425 2491 3425 1978 
L 3425 0 
L 2847 0 
L 2847 2094 
Q 2847 2600 2669 2842 
Q 2491 3084 2119 3084 
Q 1678 3084 1418 2786 
Q 1159 2488 1159 1978 
L 1159 0 
L 581 0 
L 581 3500 
L 1159 3500 
L 1159 2956 
Q 1356 3278 1631 3431 
Q 1906 3584 2284 3584 
Q 2666 3584 2933 3390 
Q 3200 3197 3328 2828 
z
" transform="scale(0.015625)"/>
      <path id="DejaVuSans-72" d="M 2631 2963 
Q 2534 3019 2420 3045 
Q 2306 3072 2169 3072 
Q 1681 3072 1420 2755 
Q 1159 2438 1159 1844 
L 1159 0 
L 581 0 
L 581 3500 
L 1159 3500 
L 1159 2956 
Q 1341 3275 1631 3429 
Q 1922 3584 2338 3584 
Q 2397 3584 2469 3576 
Q 2541 3569 2628 3553 
L 2631 2963 
z
" transform="scale(0.015625)"/>
      <path id="DejaVuSans-20" transform="scale(0.015625)"/>
      <path id="DejaVuSans-66" d="M 2375 4863 
L 2375 4384 
L 1825 4384 
Q 1516 4384 1395 4259 
Q 1275 4134 1275 3809 
L 1275 3500 
L 2222 3500 
L 2222 3053 
L 1275 3053 
L 1275 0 
L 697 0 
L 697 3053 
L 147 3053 
L 147 3500 
L 697 3500 
L 697 3744 
Q 697 4328 969 4595 
Q 1241 4863 1831 4863 
L 2375 4863 
z
" transform="scale(0.015625)"/>
      <path id="DejaVuSans-6a" d="M 603 3500 
L 1178 3500 
L 1178 -63 
Q 1178 -731 923 -1031 
Q 669 -1331 103 -1331 
L -116 -1331 
L -116 -844 
L 38 -844 
Q 366 -844 484 -692 
Q 603 -541 603 -63 
L 603 3500 
z
M 603 4863 
L 1178 4863 
L 1178 4134 
L 603 4134 
L 603 4863 
z
" transform="scale(0.015625)"/>
      <path id="DejaVuSans-77" d="M 269 3500 
L 844 3500 
L 1563 769 
L 2278 3500 
L 2956 3500 
L 3675 769 
L 4391 3500 
L 4966 3500 
L 4050 0 
L 3372 0 
L 2619 2869 
L 1863 0 
L 1184 0 
L 269 3500 
z
" transform="scale(0.015625)"/>
      <path id="DejaVuSans-68" d="M 3513 2113 
L 3513 0 
L 2938 0 
L 2938 2094 
Q 2938 2591 2744 2837 
Q 2550 3084 2163 3084 
Q 1697 3084 1428 2787 
Q 1159 2491 1159 1978 
L 1159 0 
L 581 0 
L 581 4863 
L 1159 4863 
L 1159 2956 
Q 1366 3272 1645 3428 
Q 1925 3584 2291 3584 
Q 2894 3584 3203 3211 
Q 3513 2838 3513 2113 
z
" transform="scale(0.015625)"/>
      <path id="DejaVuSans-67" d="M 2906 1791 
Q 2906 2416 2648 2759 
Q 2391 3103 1925 3103 
Q 1463 3103 1205 2759 
Q 947 2416 947 1791 
Q 947 1169 1205 825 
Q 1463 481 1925 481 
Q 2391 481 2648 825 
Q 2906 1169 2906 1791 
z
M 3481 434 
Q 3481 -459 3084 -895 
Q 2688 -1331 1869 -1331 
Q 1566 -1331 1297 -1286 
Q 1028 -1241 775 -1147 
L 775 -588 
Q 1028 -725 1275 -790 
Q 1522 -856 1778 -856 
Q 2344 -856 2625 -561 
Q 2906 -266 2906 331 
L 2906 616 
Q 2728 306 2450 153 
Q 2172 0 1784 0 
Q 1141 0 747 490 
Q 353 981 353 1791 
Q 353 2603 747 3093 
Q 1141 3584 1784 3584 
Q 2172 3584 2450 3431 
Q 2728 3278 2906 2969 
L 2906 3500 
L 3481 3500 
L 3481 434 
z
" transform="scale(0.015625)"/>
     </defs>
     <use xlink:href="#DejaVuSans-43"/>
     <use xlink:href="#DejaVuSans-6f" x="69.824219"/>
     <use xlink:href="#DejaVuSans-6d" x="131.005859"/>
     <use xlink:href="#DejaVuSans-70" x="228.417969"/>
     <use xlink:href="#DejaVuSans-61" x="291.894531"/>
     <use xlink:href="#DejaVuSans-72" x="353.173828"/>
     <use xlink:href="#DejaVuSans-69" x="394.287109"/>
     <use xlink:href="#DejaVuSans-73" x="422.070312"/>
     <use xlink:href="#DejaVuSans-6f" x="474.169922"/>
     <use xlink:href="#DejaVuSans-6e" x="535.351562"/>
     <use xlink:href="#DejaVuSans-20" x="598.730469"/>
     <use xlink:href="#DejaVuSans-6f" x="630.517578"/>
     <use xlink:href="#DejaVuSans-66" x="691.699219"/>
     <use xlink:href="#DejaVuSans-20" x="726.904297"/>
     <use xlink:href="#DejaVuSans-70" x="758.691406"/>
     <use xlink:href="#DejaVuSans-72" x="822.167969"/>
     <use xlink:href="#DejaVuSans-6f" x="861.03125"/>
     <use xlink:href="#DejaVuSans-6a" x="922.212891"/>
     <use xlink:href="#DejaVuSans-65" x="949.996094"/>
     <use xlink:href="#DejaVuSans-63" x="1011.519531"/>
     <use xlink:href="#DejaVuSans-74" x="1066.5"/>
     <use xlink:href="#DejaVuSans-69" x="1105.708984"/>
     <use xlink:href="#DejaVuSans-6f" x="1133.492188"/>
     <use xlink:href="#DejaVuSans-6e" x="1194.673828"/>
     <use xlink:href="#DejaVuSans-20" x="1258.052734"/>
     <use xlink:href="#DejaVuSans-77" x="1289.839844"/>
     <use xlink:href="#DejaVuSans-69" x="1371.626953"/>
     <use xlink:href="#DejaVuSans-74" x="1399.410156"/>
     <use xlink:href="#DejaVuSans-68" x="1438.619141"/>
     <use xlink:href="#DejaVuSans-20" x="1501.998047"/>
     <use xlink:href="#DejaVuSans-61" x="1533.785156"/>
     <use xlink:href="#DejaVuSans-6e" x="1595.064453"/>
     <use xlink:href="#DejaVuSans-64" x="1658.443359"/>
     <use xlink:href="#DejaVuSans-20" x="1721.919922"/>
     <use xlink:href="#DejaVuSans-77" x="1753.707031"/>
     <use xlink:href="#DejaVuSans-69" x="1835.494141"/>
     <use xlink:href="#DejaVuSans-74" x="1863.277344"/>
     <use xlink:href="#DejaVuSans-68" x="1902.486328"/>
     <use xlink:href="#DejaVuSans-20" x="1965.865234"/>
     <use xlink:href="#DejaVuSans-73" x="1997.652344"/>
     <use xlink:href="#DejaVuSans-63" x="2049.751953"/>
     <use xlink:href="#DejaVuSans-61" x="2104.732422"/>
     <use xlink:href="#DejaVuSans-6c" x="2166.011719"/>
     <use xlink:href="#DejaVuSans-69" x="2193.794922"/>
     <use xlink:href="#DejaVuSans-6e" x="2221.578125"/>
     <use xlink:href="#DejaVuSans-67" x="2284.957031"/>
     <use xlink:href="#DejaVuSans-20" x="2348.433594"/>
    </g>
    <!--  of the source thread input on CG-OMP and FT-OMP -->
    <g transform="translate(170.538 43.2888) scale(0.192 -0.192)">
     <use xlink:href="#DejaVuSans-20"/>
     <use xlink:href="#DejaVuSans-6f" x="31.787109"/>
     <use xlink:href="#DejaVuSans-66" x="92.96875"/>
     <use xlink:href="#DejaVuSans-20" x="128.173828"/>
     <use xlink:href="#DejaVuSans-74" x="159.960938"/>
     <use xlink:href="#DejaVuSans-68" x="199.169922"/>
     <use xlink:href="#DejaVuSans-65" x="262.548828"/>
     <use xlink:href="#DejaVuSans-20" x="324.072266"/>
     <use xlink:href="#DejaVuSans-73" x="355.859375"/>
     <use xlink:href="#DejaVuSans-6f" x="407.958984"/>
     <use xlink:href="#DejaVuSans-75" x="469.140625"/>
     <use xlink:href="#DejaVuSans-72" x="532.519531"/>
     <use xlink:href="#DejaVuSans-63" x="571.382812"/>
     <use xlink:href="#DejaVuSans-65" x="626.363281"/>
     <use xlink:href="#DejaVuSans-20" x="687.886719"/>
     <use xlink:href="#DejaVuSans-74" x="719.673828"/>
     <use xlink:href="#DejaVuSans-68" x="758.882812"/>
     <use xlink:href="#DejaVuSans-72" x="822.261719"/>
     <use xlink:href="#DejaVuSans-65" x="861.125"/>
     <use xlink:href="#DejaVuSans-61" x="922.648438"/>
     <use xlink:href="#DejaVuSans-64" x="983.927734"/>
     <use xlink:href="#DejaVuSans-20" x="1047.404297"/>
     <use xlink:href="#DejaVuSans-69" x="1079.191406"/>
     <use xlink:href="#DejaVuSans-6e" x="1106.974609"/>
     <use xlink:href="#DejaVuSans-70" x="1170.353516"/>
     <use xlink:href="#DejaVuSans-75" x="1233.830078"/>
     <use xlink:href="#DejaVuSans-74" x="1297.208984"/>
     <use xlink:href="#DejaVuSans-20" x="1336.417969"/>
     <use xlink:href="#DejaVuSans-6f" x="1368.205078"/>
     <use xlink:href="#DejaVuSans-6e" x="1429.386719"/>
     <use xlink:href="#DejaVuSans-20" x="1492.765625"/>
     <use xlink:href="#DejaVuSans-43" x="1524.552734"/>
     <use xlink:href="#DejaVuSans-47" x="1594.376953"/>
     <use xlink:href="#DejaVuSans-2d" x="1671.867188"/>
     <use xlink:href="#DejaVuSans-4f" x="1710.701172"/>
     <use xlink:href="#DejaVuSans-4d" x="1789.412109"/>
     <use xlink:href="#DejaVuSans-50" x="1875.691406"/>
     <use xlink:href="#DejaVuSans-20" x="1935.994141"/>
     <use xlink:href="#DejaVuSans-61" x="1967.78125"/>
     <use xlink:href="#DejaVuSans-6e" x="2029.060547"/>
     <use xlink:href="#DejaVuSans-64" x="2092.439453"/>
     <use xlink:href="#DejaVuSans-20" x="2155.916016"/>
     <use xlink:href="#DejaVuSans-46" x="2187.703125"/>
     <use xlink:href="#DejaVuSans-54" x="2243.472656"/>
     <use xlink:href="#DejaVuSans-2d" x="2295.431641"/>
     <use xlink:href="#DejaVuSans-4f" x="2334.265625"/>
     <use xlink:href="#DejaVuSans-4d" x="2412.976562"/>
     <use xlink:href="#DejaVuSans-50" x="2499.255859"/>
    </g>
   </g>
   <g id="legend_1">
    <g id="patch_28">
     <path d="M 527.639531 397.6048 
L 764.27 397.6048 
Q 766.87 397.6048 766.87 395.0048 
L 766.87 319.97855 
Q 766.87 317.37855 764.27 317.37855 
L 527.639531 317.37855 
Q 525.039531 317.37855 525.039531 319.97855 
L 525.039531 395.0048 
Q 525.039531 397.6048 527.639531 397.6048 
z
" style="fill: #ffffff; opacity: 0.8; stroke: #cccccc; stroke-linejoin: miter"/>
    </g>
    <g id="line2d_28">
     <path d="M 530.239531 327.906519 
L 556.239531 327.906519 
" style="fill: none; stroke: #000000; stroke-width: 1.5"/>
    </g>
    <g id="text_33">
     <!-- Projected speedup interval -->
     <g transform="translate(566.639531 332.456519) scale(0.13 -0.13)">
      <defs>
       <path id="DejaVuSans-76" d="M 191 3500 
L 800 3500 
L 1894 563 
L 2988 3500 
L 3597 3500 
L 2284 0 
L 1503 0 
L 191 3500 
z
" transform="scale(0.015625)"/>
      </defs>
      <use xlink:href="#DejaVuSans-50"/>
      <use xlink:href="#DejaVuSans-72" x="58.552734"/>
      <use xlink:href="#DejaVuSans-6f" x="97.416016"/>
      <use xlink:href="#DejaVuSans-6a" x="158.597656"/>
      <use xlink:href="#DejaVuSans-65" x="186.380859"/>
      <use xlink:href="#DejaVuSans-63" x="247.904297"/>
      <use xlink:href="#DejaVuSans-74" x="302.884766"/>
      <use xlink:href="#DejaVuSans-65" x="342.09375"/>
      <use xlink:href="#DejaVuSans-64" x="403.617188"/>
      <use xlink:href="#DejaVuSans-20" x="467.09375"/>
      <use xlink:href="#DejaVuSans-73" x="498.880859"/>
      <use xlink:href="#DejaVuSans-70" x="550.980469"/>
      <use xlink:href="#DejaVuSans-65" x="614.457031"/>
      <use xlink:href="#DejaVuSans-65" x="675.980469"/>
      <use xlink:href="#DejaVuSans-64" x="737.503906"/>
      <use xlink:href="#DejaVuSans-75" x="800.980469"/>
      <use xlink:href="#DejaVuSans-70" x="864.359375"/>
      <use xlink:href="#DejaVuSans-20" x="927.835938"/>
      <use xlink:href="#DejaVuSans-69" x="959.623047"/>
      <use xlink:href="#DejaVuSans-6e" x="987.40625"/>
      <use xlink:href="#DejaVuSans-74" x="1050.785156"/>
      <use xlink:href="#DejaVuSans-65" x="1089.994141"/>
      <use xlink:href="#DejaVuSans-72" x="1151.517578"/>
      <use xlink:href="#DejaVuSans-76" x="1192.630859"/>
      <use xlink:href="#DejaVuSans-61" x="1251.810547"/>
      <use xlink:href="#DejaVuSans-6c" x="1313.089844"/>
     </g>
    </g>
    <g id="patch_29">
     <path d="M 530.239531 351.538081 
L 556.239531 351.538081 
L 556.239531 342.438081 
L 530.239531 342.438081 
z
" style="fill: #e69f00"/>
    </g>
    <g id="text_34">
     <!-- Projected interval median -->
     <g transform="translate(566.639531 351.538081) scale(0.13 -0.13)">
      <use xlink:href="#DejaVuSans-50"/>
      <use xlink:href="#DejaVuSans-72" x="58.552734"/>
      <use xlink:href="#DejaVuSans-6f" x="97.416016"/>
      <use xlink:href="#DejaVuSans-6a" x="158.597656"/>
      <use xlink:href="#DejaVuSans-65" x="186.380859"/>
      <use xlink:href="#DejaVuSans-63" x="247.904297"/>
      <use xlink:href="#DejaVuSans-74" x="302.884766"/>
      <use xlink:href="#DejaVuSans-65" x="342.09375"/>
      <use xlink:href="#DejaVuSans-64" x="403.617188"/>
      <use xlink:href="#DejaVuSans-20" x="467.09375"/>
      <use xlink:href="#DejaVuSans-69" x="498.880859"/>
      <use xlink:href="#DejaVuSans-6e" x="526.664062"/>
      <use xlink:href="#DejaVuSans-74" x="590.042969"/>
      <use xlink:href="#DejaVuSans-65" x="629.251953"/>
      <use xlink:href="#DejaVuSans-72" x="690.775391"/>
      <use xlink:href="#DejaVuSans-76" x="731.888672"/>
      <use xlink:href="#DejaVuSans-61" x="791.068359"/>
      <use xlink:href="#DejaVuSans-6c" x="852.347656"/>
      <use xlink:href="#DejaVuSans-20" x="880.130859"/>
      <use xlink:href="#DejaVuSans-6d" x="911.917969"/>
      <use xlink:href="#DejaVuSans-65" x="1009.330078"/>
      <use xlink:href="#DejaVuSans-64" x="1070.853516"/>
      <use xlink:href="#DejaVuSans-69" x="1134.330078"/>
      <use xlink:href="#DejaVuSans-61" x="1162.113281"/>
      <use xlink:href="#DejaVuSans-6e" x="1223.392578"/>
     </g>
    </g>
    <g id="patch_30">
     <path d="M 530.239531 370.619644 
L 556.239531 370.619644 
L 556.239531 361.519644 
L 530.239531 361.519644 
z
" style="fill: #0072b2"/>
    </g>
    <g id="text_35">
     <!-- Projected median with scaling -->
     <g transform="translate(566.639531 370.619644) scale(0.13 -0.13)">
      <use xlink:href="#DejaVuSans-50"/>
      <use xlink:href="#DejaVuSans-72" x="58.552734"/>
      <use xlink:href="#DejaVuSans-6f" x="97.416016"/>
      <use xlink:href="#DejaVuSans-6a" x="158.597656"/>
      <use xlink:href="#DejaVuSans-65" x="186.380859"/>
      <use xlink:href="#DejaVuSans-63" x="247.904297"/>
      <use xlink:href="#DejaVuSans-74" x="302.884766"/>
      <use xlink:href="#DejaVuSans-65" x="342.09375"/>
      <use xlink:href="#DejaVuSans-64" x="403.617188"/>
      <use xlink:href="#DejaVuSans-20" x="467.09375"/>
      <use xlink:href="#DejaVuSans-6d" x="498.880859"/>
      <use xlink:href="#DejaVuSans-65" x="596.292969"/>
      <use xlink:href="#DejaVuSans-64" x="657.816406"/>
      <use xlink:href="#DejaVuSans-69" x="721.292969"/>
      <use xlink:href="#DejaVuSans-61" x="749.076172"/>
      <use xlink:href="#DejaVuSans-6e" x="810.355469"/>
      <use xlink:href="#DejaVuSans-20" x="873.734375"/>
      <use xlink:href="#DejaVuSans-77" x="905.521484"/>
      <use xlink:href="#DejaVuSans-69" x="987.308594"/>
      <use xlink:href="#DejaVuSans-74" x="1015.091797"/>
      <use xlink:href="#DejaVuSans-68" x="1054.300781"/>
      <use xlink:href="#DejaVuSans-20" x="1117.679688"/>
      <use xlink:href="#DejaVuSans-73" x="1149.466797"/>
      <use xlink:href="#DejaVuSans-63" x="1201.566406"/>
      <use xlink:href="#DejaVuSans-61" x="1256.546875"/>
      <use xlink:href="#DejaVuSans-6c" x="1317.826172"/>
      <use xlink:href="#DejaVuSans-69" x="1345.609375"/>
      <use xlink:href="#DejaVuSans-6e" x="1373.392578"/>
      <use xlink:href="#DejaVuSans-67" x="1436.771484"/>
     </g>
    </g>
    <g id="patch_31">
     <path d="M 530.239531 389.701206 
L 556.239531 389.701206 
L 556.239531 380.601206 
L 530.239531 380.601206 
z
" style="fill: #0072b2"/>
    </g>
    <g id="text_36">
     <!-- gem5 speedup -->
     <g transform="translate(566.639531 389.701206) scale(0.13 -0.13)">
      <use xlink:href="#DejaVuSans-67"/>
      <use xlink:href="#DejaVuSans-65" x="63.476562"/>
      <use xlink:href="#DejaVuSans-6d" x="125"/>
      <use xlink:href="#DejaVuSans-35" x="222.412109"/>
      <use xlink:href="#DejaVuSans-20" x="286.035156"/>
      <use xlink:href="#DejaVuSans-73" x="317.822266"/>
      <use xlink:href="#DejaVuSans-70" x="369.921875"/>
      <use xlink:href="#DejaVuSans-65" x="433.398438"/>
      <use xlink:href="#DejaVuSans-65" x="494.921875"/>
      <use xlink:href="#DejaVuSans-64" x="556.445312"/>
      <use xlink:href="#DejaVuSans-75" x="619.921875"/>
      <use xlink:href="#DejaVuSans-70" x="683.300781"/>
     </g>
    </g>
   </g>
  </g>
 </g>
 <defs>
  <clipPath id="p31ab61cda8">
   <rect x="59.13" y="49.2888" width="714.24" height="354.816"/>
  </clipPath>
 </defs>
</svg>
